name analog
datacolumns 19
datarows 52
range 0.611 0.6365000000000001
endheader
time	ground_force_vx	ground_force_vy	ground_force_vz	ground_force_px	ground_force_py	ground_force_pz	l_ground_force_vx	l_ground_force_vy	l_ground_force_vz	l_ground_force_px	l_ground_force_py	l_ground_force_pz	ground_torque_x	ground_torque_y	ground_torque_z	l_ground_torque_x	l_ground_torque_y	l_ground_torque_z
0.611	-0.0	-0.0	-0.0	0.274901419878006	46.3960075378418	-392.0550231933594	-1.6240314245224	-43.39307022094727	-369.1343994140625	-0.0	-0.0	-0.0	-0.0	-0.0	-0.0	74092.5390625	59635.08203125	-8856.615234375
0.6115	-0.0	-0.0	-0.0	0.3221078217029571	46.10014343261719	-388.76751708984375	-1.6647000312805176	-43.27043914794922	-366.2066040039063	-0.0	-0.0	-0.0	-0.0	-0.0	-0.0	73601.359375	59054.6796875	-8628.3701171875
0.612	-0.0	-0.0	-0.0	0.4460525512695312	45.82659530639648	-389.449951171875	-1.5832504034042358	-42.883888244628906	-363.8692932128906	-0.0	-0.0	-0.0	-0.0	-0.0	-0.0	73238.1953125	58418.671875	-8644.2548828125
0.6125	-0.0	-0.0	-0.0	-0.1106373891234397	45.113529205322266	-388.0062561035156	-2.0268287658691406	-43.16238784790039	-362.6621398925781	-0.0	-0.0	-0.0	-0.0	-0.0	-0.0	73100.640625	58295.2109375	-8674.3046875
0.613	-0.0	-0.0	-0.0	-0.1108258888125419	44.97574996948242	-387.0531921386719	-2.306480407714844	-43.01266479492188	-359.3831481933594	-0.0	-0.0	-0.0	-0.0	-0.0	-0.0	72902.15625	57920.96484375	-8653.818359375
0.6135	-0.0	-0.0	-0.0	-0.5217817425727844	44.39209747314453	-386.6990661621094	-2.2177696228027344	-42.69415664672852	-358.3883056640625	-0.0	-0.0	-0.0	-0.0	-0.0	-0.0	72339.8046875	57773.9609375	-8690.4990234375
0.614	-0.0	-0.0	-0.0	-0.1918661147356033	44.59206771850586	-387.9512634277344	-2.190953254699707	-42.21776580810547	-359.5733947753906	-0.0	-0.0	-0.0	-0.0	-0.0	-0.0	72406.4140625	57394.95703125	-8631.0673828125
0.6145	-0.0	-0.0	-0.0	0.2542159259319305	44.53839492797852	-388.8511352539063	-2.333238124847412	-41.96120071411133	-357.340087890625	-0.0	-0.0	-0.0	-0.0	-0.0	-0.0	72262.34375	57368.95703125	-8416.189453125
0.615	-0.0	-0.0	-0.0	0.1917989403009414	44.62760162353516	-389.8752746582031	-2.0890347957611084	-41.272796630859375	-358.5787353515625	-0.0	-0.0	-0.0	-0.0	-0.0	-0.0	72357.0859375	57074.44921875	-8397.9697265625
0.6155	-0.0	-0.0	-0.0	0.1517405807971954	44.50273132324219	-391.6765747070313	-1.7076963186264038	-41.23298645019531	-358.3692932128906	-0.0	-0.0	-0.0	-0.0	-0.0	-0.0	72344.71875	56944.3125	-8203.412109375
0.616	-0.0	-0.0	-0.0	0.4593647420406341	44.466739654541016	-393.6375427246094	-1.13996422290802	-41.00769805908203	-359.38153076171875	-0.0	-0.0	-0.0	-0.0	-0.0	-0.0	72577.2265625	56688.0	-8021.9287109375
0.6165	-0.0	-0.0	-0.0	0.7004095911979675	44.94824600219727	-394.81732177734375	-1.2551895380020142	-41.23305130004883	-359.3812561035156	-0.0	-0.0	-0.0	-0.0	-0.0	-0.0	72863.5859375	56457.6171875	-7994.095703125
0.617	-0.0	-0.0	-0.0	0.915131688117981	44.87226867675781	-398.386962890625	-1.5344854593276978	-41.46230316162109	-361.3199768066406	-0.0	-0.0	-0.0	-0.0	-0.0	-0.0	73178.1875	56608.5	-8126.32666015625
0.6175	-0.0	-0.0	-0.0	0.9813156127929688	44.75666046142578	-399.7996826171875	-1.3798526525497437	-41.61263275146485	-360.1827392578125	-0.0	-0.0	-0.0	-0.0	-0.0	-0.0	73290.9453125	56631.74609375	-8096.61962890625
0.618	-0.0	-0.0	-0.0	1.1333942413330078	45.5689697265625	-401.172119140625	-1.41937255859375	-41.67475891113281	-361.7210693359375	-0.0	-0.0	-0.0	-0.0	-0.0	-0.0	73662.171875	56731.3125	-7957.16455078125
0.6185	-0.0	-0.0	-0.0	0.852704644203186	45.38050079345703	-404.3802490234375	-1.0645294189453125	-41.57343673706055	-363.7644348144531	-0.0	-0.0	-0.0	-0.0	-0.0	-0.0	73968.6015625	56807.67578125	-7948.1396484375
0.619	-0.0	-0.0	-0.0	0.8921051025390625	45.73699188232422	-406.0012817382813	-0.9001783728599548	-41.5372200012207	-365.0692443847656	-0.0	-0.0	-0.0	-0.0	-0.0	-0.0	74128.7890625	56353.6640625	-7778.79833984375
0.6195	-0.0	-0.0	-0.0	0.9921191930770874	46.67596054077149	-409.7921752929688	-0.683620274066925	-41.29562377929688	-365.1612854003906	-0.0	-0.0	-0.0	-0.0	-0.0	-0.0	74247.5	56415.2890625	-7930.4306640625
0.62	-0.0	-0.0	-0.0	1.196826696395874	46.90663146972656	-411.2046203613281	-0.6706997156143188	-41.409934997558594	-364.463134765625	-0.0	-0.0	-0.0	-0.0	-0.0	-0.0	74422.34375	56290.984375	-7601.3984375
0.6205	-0.0	-0.0	-0.0	0.8140926957130432	47.1629753112793	-411.9622192382813	-0.0129676265642046	-41.53701400756836	-365.2636413574219	-0.0	-0.0	-0.0	-0.0	-0.0	-0.0	74732.6484375	56120.41796875	-7684.873046875
0.621	-0.0	-0.0	-0.0	0.5222986936569214	47.41891479492188	-415.0829772949219	-0.1016409248113632	-41.64921569824219	-365.1108093261719	-0.0	-0.0	-0.0	-0.0	-0.0	-0.0	74474.625	56331.1796875	-7532.345703125
0.6215	-0.0	-0.0	-0.0	0.3193382322788238	47.87466430664063	-417.10552978515625	-0.1774215698242187	-41.3730583190918	-364.9649658203125	-0.0	-0.0	-0.0	-0.0	-0.0	-0.0	74544.3984375	56268.8046875	-7706.5546875
0.622	-0.0	-0.0	-0.0	0.1784210205078125	48.015533447265625	-419.4756774902344	-0.6724036335945129	-42.140960693359375	-365.11138916015625	-0.0	-0.0	-0.0	-0.0	-0.0	-0.0	74698.796875	56009.65625	-7838.189453125
0.6225	-0.0	-0.0	-0.0	0.0257284697145223	47.838157653808594	-421.9514770507813	-1.685504913330078	-42.242218017578125	-364.9139709472656	-0.0	-0.0	-0.0	-0.0	-0.0	-0.0	74355.9921875	56052.9921875	-8046.59375
0.623	-0.0	-0.0	-0.0	0.1405166536569595	48.436256408691406	-422.354736328125	-2.16743803024292	-42.24324035644531	-365.6121215820313	-0.0	-0.0	-0.0	-0.0	-0.0	-0.0	74639.0234375	56159.0	-8110.8349609375
0.6235	-0.0	-0.0	-0.0	0.0383665114641189	48.57607269287109	-425.1792602539063	-2.9274559020996094	-42.3944091796875	-364.715087890625	-0.0	-0.0	-0.0	-0.0	-0.0	-0.0	74223.1640625	55942.62890625	-8356.9765625
0.624	-0.0	-0.0	-0.0	-0.2165880501270294	48.97084045410156	-429.1136474609375	-2.8896563053131104	-42.04150772094727	-366.1097717285156	-0.0	-0.0	-0.0	-0.0	-0.0	-0.0	74430.703125	56376.70703125	-8424.6826171875
0.6245	-0.0	-0.0	-0.0	0.3697135150432586	49.22540664672852	-431.03125	-3.3076796531677246	-42.16735076904297	-365.6611633300781	-0.0	-0.0	-0.0	-0.0	-0.0	-0.0	74597.5703125	56079.46484375	-8543.5751953125
0.625	-0.0	-0.0	-0.0	0.6756276488304138	49.36516189575195	-434.0079345703125	-3.624489307403565	-42.3438835144043	-365.811279296875	-0.0	-0.0	-0.0	-0.0	-0.0	-0.0	74579.1328125	56286.375	-8543.837890625
0.6255000000000001	-0.0	-0.0	-0.0	-0.0385807119309902	49.93831634521485	-434.3612060546875	-4.28336763381958	-42.520774841308594	-365.7108459472656	-0.0	-0.0	-0.0	-0.0	-0.0	-0.0	74541.828125	56233.203125	-8739.2958984375
0.626	-0.0	-0.0	-0.0	0.1910407692193985	50.27042007446289	-434.6611328125	-4.447527885437012	-43.16424179077149	-367.1069946289063	-0.0	-0.0	-0.0	-0.0	-0.0	-0.0	74596.78125	56490.55859375	-8798.8916015625
0.6265000000000001	-0.0	-0.0	-0.0	0.560427188873291	49.83646774291992	-437.992919921875	-5.131814479827881	-42.93683624267578	-366.76080322265625	-0.0	-0.0	-0.0	-0.0	-0.0	-0.0	74555.765625	56511.4140625	-8816.3837890625
0.627	-0.0	-0.0	-0.0	0.5352630615234375	49.8377685546875	-438.3407287597656	-5.284024715423584	-42.97526168823242	-366.5599060058594	-0.0	-0.0	-0.0	-0.0	-0.0	-0.0	74652.453125	56294.359375	-8981.587890625
0.6275000000000001	-0.0	-0.0	-0.0	-0.2316788136959076	49.74726867675781	-440.3658447265625	-5.867396354675293	-42.9878044128418	-366.35833740234375	-0.0	-0.0	-0.0	-0.0	-0.0	-0.0	74841.7734375	56270.21875	-9071.4140625
0.628	-0.0	-0.0	-0.0	0.2033782750368118	49.7989616394043	-441.5317077636719	-6.348254203796387	-42.72134017944336	-367.0073547363281	-0.0	-0.0	-0.0	-0.0	-0.0	-0.0	74714.0546875	56260.06640625	-9092.5625
0.6285000000000001	-0.0	-0.0	-0.0	-0.1659703105688095	50.244667053222656	-441.5242004394531	-6.7171807289123535	-42.86075210571289	-366.9583740234375	-0.0	-0.0	-0.0	-0.0	-0.0	-0.0	74769.2734375	56307.0625	-9143.2900390625
0.629	-0.0	-0.0	-0.0	0.0248260106891393	50.34859085083008	-442.4761352539063	-7.19795560836792	-42.81136703491211	-366.51171875	-0.0	-0.0	-0.0	-0.0	-0.0	-0.0	74691.0390625	56088.3203125	-9118.03125
0.6295000000000001	-0.0	-0.0	-0.0	-0.0618765316903591	50.0171012878418	-443.751220703125	-7.059829711914063	-42.6839599609375	-365.1154174804688	-0.0	-0.0	-0.0	-0.0	-0.0	-0.0	74512.59375	56179.49609375	-9109.5693359375
0.63	-0.0	-0.0	-0.0	0.2799709141254425	49.98983001708984	-444.1049499511719	-6.867656230926514	-42.49498748779297	-365.8624572753906	-0.0	-0.0	-0.0	-0.0	-0.0	-0.0	74645.765625	55889.73046875	-9148.0869140625
0.6305000000000001	-0.0	-0.0	-0.0	0.3598628044128418	49.876121520996094	-441.828125	-6.892141819000244	-42.4039192199707	-366.4158325195313	-0.0	-0.0	-0.0	-0.0	-0.0	-0.0	74500.0703125	55856.21484375	-9079.6337890625
0.631	-0.0	-0.0	-0.0	-0.1939807832241058	49.172176361083984	-443.1436462402344	-6.956175327301025	-42.26652908325195	-365.0680236816406	-0.0	-0.0	-0.0	-0.0	-0.0	-0.0	74207.1953125	55611.58984375	-9203.3466796875
0.6315000000000001	-0.0	-0.0	-0.0	0.8309179544448853	49.3257942199707	-442.3891296386719	-7.23766279220581	-42.3944091796875	-363.6238098144531	-0.0	-0.0	-0.0	-0.0	-0.0	-0.0	74090.3359375	55453.1640625	-9113.521484375
0.632	-0.0	-0.0	-0.0	0.689265251159668	49.17558670043945	-442.1812744140625	-7.032510757446289	-42.53467559814453	-361.8648681640625	-0.0	-0.0	-0.0	-0.0	-0.0	-0.0	73832.8046875	55299.72265625	-9071.4833984375
0.6325000000000001	-0.0	-0.0	-0.0	0.2149361371994018	49.09869384765625	-440.7685546875	-6.855014324188232	-42.14153671264648	-361.32415771484375	-0.0	-0.0	-0.0	-0.0	-0.0	-0.0	73405.5625	55050.4296875	-9063.1123046875
0.633	-0.0	-0.0	-0.0	0.8799710869789124	48.92047119140625	-439.5960388183594	-6.955754280090332	-42.45863342285156	-360.3721008300781	-0.0	-0.0	-0.0	-0.0	-0.0	-0.0	73509.46875	54544.83984375	-9025.50390625
0.6335000000000001	-0.0	-0.0	-0.0	1.2610530853271484	48.39781188964844	-439.1464538574219	-6.919441223144531	-42.15349578857422	-360.6900634765625	-0.0	-0.0	-0.0	-0.0	-0.0	-0.0	72943.7421875	54456.984375	-8986.283203125
0.634	-0.0	-0.0	-0.0	1.1476683616638184	48.31340789794922	-439.6612548828125	-6.463848114013672	-42.12944793701172	-357.9278259277344	-0.0	-0.0	-0.0	-0.0	-0.0	-0.0	72571.28125	54124.51953125	-8868.744140625
0.6345000000000001	-0.0	-0.0	-0.0	1.2559814453125	47.720829010009766	-437.943115234375	-6.31046724319458	-41.92890548706055	-356.97467041015625	-0.0	-0.0	-0.0	-0.0	-0.0	-0.0	72502.40625	54008.546875	-8833.3857421875
0.635	-0.0	-0.0	-0.0	1.7790180444717407	47.45335006713867	-436.78857421875	-5.979543685913086	-42.01728057861328	-355.38922119140625	-0.0	-0.0	-0.0	-0.0	-0.0	-0.0	71999.4453125	53526.46484375	-8566.1767578125
0.6355000000000001	-0.0	-0.0	-0.0	2.051841735839844	47.64890670776367	-435.4235229492188	-5.375548839569092	-41.740509033203125	-354.7850341796875	-0.0	-0.0	-0.0	-0.0	-0.0	-0.0	71971.078125	53133.41796875	-8557.6689453125
0.636	-0.0	-0.0	-0.0	1.8080646991729736	46.85304641723633	-433.4462585449219	-5.310748100280762	-41.55213165283203	-353.992919921875	-0.0	-0.0	-0.0	-0.0	-0.0	-0.0	71801.4140625	52759.9375	-8508.017578125
0.6365000000000001	-0.0	-0.0	-0.0	2.170750617980957	46.38937759399414	-432.8572387695313	-5.505660533905029	-41.66419219970703	-351.7826538085937	-0.0	-0.0	-0.0	-0.0	-0.0	-0.0	71484.78125	52581.9375	-8423.203125
